<?xml version="1.0" encoding="UTF-8"?>
<!DOCTYPE svg PUBLIC "-//W3C//DTD SVG 1.1//EN" "http://www.w3.org/Graphics/SVG/1.1/DTD/svg11.dtd">
<svg fill-rule="evenodd" preserveAspectRatio="xMidYMid" version="1.1" viewBox="0 0 500 500" xmlns="http://www.w3.org/2000/svg"
	xmlns:xlink="http://www.w3.org/1999/xlink">
	<g id="Standard" visibility="visible">
		<desc>Master slide</desc>
	</g>
	<g id="page1" visibility="visible">
		<desc>Slide</desc>
		<g>
			<desc>Drawing</desc>
			<g>
				<g style="stroke:none;fill:rgb(0,0,0)">
					<path d="M 250,550 L 0,550 0,500 0,450 250,450 250,500 250,550 Z"/>
					<path d="M 0,500 L 0,550 -9,549 -17,547 -25,543 -32,538 -38,532 -43,525 -47,517 -49,509 -50,500 -50,500 0,500 Z"/>
					<path d="M -50,500 L -50,0 0,0 50,0 50,500 0,500 -50,500 Z"/>
					<path d="M 0,0 L -50,0 -49,-9 -47,-17 -43,-25 -38,-32 -32,-38 -25,-43 -17,-47 -9,-49 0,-50 0,-50 0,0 Z"/>
					<path d="M 0,-50 L 500,-50 500,0 500,50 0,50 0,0 0,-50 Z"/>
					<path d="M 500,0 L 500,-50 509,-49 517,-47 525,-43 532,-38 538,-32 543,-25 547,-17 549,-9 550,0 550,0 500,0 Z"/>
					<path d="M 550,0 L 550,500 500,500 450,500 450,0 500,0 550,0 Z"/>
					<path d="M 500,500 L 550,500 549,509 547,517 543,525 538,532 532,538 525,543 517,547 509,549 500,550 500,550 500,500 Z"/>
					<path d="M 500,550 L 250,550 250,500 250,450 500,450 500,500 500,550 Z"/>
				</g>
				<g/>
			</g>
		</g>
	</g>
</svg>
